<svg xmlns="http://www.w3.org/2000/svg" viewBox="0 0 64 48" fill="none" stroke="#555" stroke-width="1.5" stroke-linecap="round">
  <!-- Three browser windows -->
  <rect x="4" y="6" width="18" height="14" rx="1"/>
  <line x1="4" y1="10" x2="22" y2="10"/>
  <circle cx="8" cy="8" r="1"/>
  <circle cx="12" cy="8" r="1"/>
  <circle cx="16" cy="8" r="1"/>
  <line x1="8" y1="14" x2="18" y2="14"/>
  <line x1="8" y1="17" x2="14" y2="17"/>
  <rect x="23" y="10" width="18" height="14" rx="1"/>
  <line x1="23" y1="14" x2="41" y2="14"/>
  <circle cx="27" cy="12" r="1"/>
  <circle cx="31" cy="12" r="1"/>
  <circle cx="35" cy="12" r="1"/>
  <line x1="27" y1="18" x2="37" y2="18"/>
  <line x1="27" y1="21" x2="33" y2="21"/>
  <rect x="42" y="14" width="18" height="14" rx="1"/>
  <line x1="42" y1="18" x2="60" y2="18"/>
  <circle cx="46" cy="16" r="1"/>
  <circle cx="50" cy="16" r="1"/>
  <circle cx="54" cy="16" r="1"/>
  <line x1="46" y1="22" x2="56" y2="22"/>
  <line x1="46" y1="25" x2="52" y2="25"/>
</svg>
