<svg xmlns="http://www.w3.org/2000/svg" viewBox="0 0 64 48" fill="none" stroke="#555" stroke-width="1.5" stroke-linecap="round">
  <!-- Desktop -->
  <rect x="2" y="8" width="24" height="18" rx="1"/>
  <line x1="8" y1="14" x2="20" y2="14"/>
  <line x1="8" y1="18" x2="18" y2="18"/>
  <rect x="8" y="22" width="4" height="2"/>
  <rect x="14" y="22" width="4" height="2"/>
  <rect x="20" y="22" width="4" height="2"/>
  <rect x="10" y="28" width="8" height="2"/>
  <!-- Tablet -->
  <rect x="22" y="14" width="14" height="20" rx="1"/>
  <line x1="26" y1="18" x2="32" y2="18"/>
  <line x1="26" y1="22" x2="34" y2="22"/>
  <rect x="26" y="26" width="6" height="4"/>
  <rect x="34" y="26" width="6" height="4"/>
  <circle cx="29" cy="36" r="1"/>
  <!-- Phone -->
  <rect x="34" y="20" width="10" height="18" rx="1"/>
  <line x1="37" y1="24" x2="41" y2="24"/>
  <line x1="37" y1="27" x2="43" y2="27"/>
  <line x1="37" y1="30" x2="40" y2="30"/>
  <circle cx="39" cy="38" r="0.8"/>
</svg>
